<?xml version="1.0" encoding="UTF-8"?>
<svg id="Layer_1" xmlns="http://www.w3.org/2000/svg" version="1.1" viewBox="0 0 600 530">
  <!-- Generator: Adobe Illustrator 29.3.1, SVG Export Plug-In . SVG Version: 2.1.0 Build 151)  -->
  <defs>
    <style>
      .st0 {
        fill: #969696;
      }
    </style>
  </defs>
  <path class="st0" d="M130.1,36.4c68.8,51.6,142.8,156.4,169.9,212.5,27.2-56.2,101.2-160.9,169.9-212.5,49.6-37.3,130.1-66.1,130.1,25.6s-10.5,153.9-16.7,175.9c-21.4,76.5-99.5,96.1-168.9,84.2,121.3,20.7,152.2,89.1,85.5,157.5-126.6,129.9-182-32.6-196.2-74.2-2.6-7.6-3.8-11.2-3.8-8.2,0-3-1.2.5-3.8,8.2-14.2,41.6-69.6,204.2-196.2,74.2-66.7-68.4-35.8-136.8,85.5-157.5-69.4,11.8-147.5-7.7-168.9-84.2C10.5,216,0,80.4,0,62.1,0-29.7,80.4-.8,130.1,36.4h0Z"/>
</svg>