<?xml version="1.0" encoding="UTF-8"?>
<svg xmlns="http://www.w3.org/2000/svg" version="1.1" viewBox="0 0 24 24">
  <defs>
    <style>
      .cls-1 {
        fill: #969696;
        fill-rule: evenodd;
      }
    </style>
  </defs>
  <!-- Generator: Adobe Illustrator 28.7.1, SVG Export Plug-In . SVG Version: 1.2.0 Build 142)  -->
  <g>
    <g id="Layer_1">
      <path class="cls-1" d="M3,24h19V1h-1v22H3v1ZM20,0H2v22h18V0ZM19,1H3v20h16V1ZM17,17H5v1h12v-1ZM17,14H5v1h12v-1ZM17,11H5v1h12v-1ZM9.7,7.1l.9.3c-.1.5-.4.9-.7,1.2-.3.3-.8.4-1.3.4s-1.2-.2-1.6-.7-.6-1-.6-1.8.2-1.4.6-1.9,1-.7,1.6-.7,1.1.2,1.4.5c.2.2.4.5.5.9l-1,.2c0-.3-.2-.4-.4-.6-.2-.1-.4-.2-.7-.2s-.7.1-.9.4c-.2.3-.3.7-.3,1.3s.1,1,.3,1.3c.2.3.5.4.9.4s.5,0,.7-.2c.2-.2.3-.4.4-.8ZM12.7,8.9l-1.7-4.8h1.1l1.2,3.6,1.2-3.6h1l-1.7,4.8s-1,0-1,0Z"/>
    </g>
  </g>
</svg>