<?xml version="1.0" encoding="UTF-8"?>
<svg xmlns="http://www.w3.org/2000/svg" version="1.1" viewBox="0 0 530 530">
  <defs>
    <style>
      .cls-1 {
        fill: #969696;
      }
    </style>
  </defs>
  <!-- Generator: Adobe Illustrator 28.7.1, SVG Export Plug-In . SVG Version: 1.2.0 Build 142)  -->
  <g>
    <g id="Layer_1">
      <path class="cls-1" d="M451.4,451.5h-78.5v-122.9c0-29.3-.5-67-40.8-67s-47.1,31.9-47.1,64.9v125h-78.5v-252.7h75.3v34.5h1.1c15.4-26.3,43.9-41.9,74.3-40.8,79.5,0,94.2,52.3,94.2,120.4v138.6ZM118,164.2c-25.1,0-45.5-20.4-45.5-45.5,0-25.1,20.4-45.5,45.5-45.5,25.1,0,45.5,20.4,45.5,45.5s-20.4,45.5-45.5,45.5h0M157.3,451.5h-78.6v-252.7h78.6v252.7ZM490.6.2H39.3C17.9,0,.5,17.1.2,38.4v453.2c.3,21.3,17.7,38.4,39.1,38.2h451.3c21.4.3,38.9-16.8,39.2-38.2V38.4c-.3-21.4-17.9-38.5-39.2-38.2"/>
    </g>
  </g>
</svg>