<?xml version="1.0" encoding="UTF-8"?>
<svg xmlns="http://www.w3.org/2000/svg" xmlns:svg="http://www.w3.org/2000/svg" xmlns:sodipodi="http://sodipodi.sourceforge.net/DTD/sodipodi-0.dtd" xmlns:rdf="http://www.w3.org/1999/02/22-rdf-syntax-ns#" xmlns:inkscape="http://www.inkscape.org/namespaces/inkscape" xmlns:dc="http://purl.org/dc/elements/1.1/" xmlns:cc="http://creativecommons.org/ns#" version="1.1" viewBox="0 0 128 128">
  <defs>
    <style>
      .cls-1 {
        fill: #969696;
        fill-opacity: 1;
      }

      .cls-2 {
        fill: #fff;
      }

      .cls-3 {
        fill: #8c8c8c;
      }
    </style>
  </defs>
  <!-- Generator: Adobe Illustrator 28.7.2, SVG Export Plug-In . SVG Version: 1.2.0 Build 154)  -->
  <g>
    <g id="svg2816">
      <g id="_x3C_defs">
        <inkscape:perspective id="perspective2824" inkscape:persp3d-origin="0.5 : 0.33333333 : 1" inkscape:vp_x="0 : 0.5 : 1" inkscape:vp_y="0 : 1000 : 0" inkscape:vp_z="1 : 0.5 : 1" sodipodi:type="inkscape:persp3d"/>
      </g>
      <sodipodi:namedview id="namedview2818" bordercolor="#666666" borderopacity="1" gridtolerance="10" guidetolerance="10" inkscape:current-layer="svg2816" inkscape:cx="44.920355" inkscape:cy="60.493358" inkscape:pageopacity="0" inkscape:pageshadow="2" inkscape:window-height="809" inkscape:window-maximized="0" inkscape:window-width="1126" inkscape:window-x="287" inkscape:window-y="0" inkscape:zoom="3.0991164" objecttolerance="10" pagecolor="#ffffff" showgrid="false"/>
      <path id="path4127" class="cls-1" d="M64,126c-.3-.7-6.2-6.4-10.4-11.7C28.7,81.2.9,50.4,33.3,13,47.7-.9,65.4-1.7,83.7,4.8c51.3,29.7,14.2,78.2-10.2,110l-9.5,11.2ZM79.4,75.2c34.2-24.5,7.8-71.6-29.8-56-11,5.9-16.4,16-16.6,28.1-.5,11.7,5.7,21.5,15.5,27.5,7.1,3.8,10.2,4.5,18.1,4.1,5.2-.3,8.2-1.2,12.8-3.6Z" sodipodi:nodetypes="ccccccccccsc"/>
      <path id="path4129" class="cls-1" d="M54.2,86.9c-24.3-5.1-39.8-28.4-34.6-52.1C24.7,11,48.6-4.1,72.9,1c24.3,5.1,39.8,28.4,34.6,52.1-5.1,23.3-28.3,38.4-52.3,34" sodipodi:cx="52.363636" sodipodi:cy="49.05526" sodipodi:end="8.0386371" sodipodi:open="true" sodipodi:rx="51.222816" sodipodi:ry="41.754009" sodipodi:start="1.7808687" sodipodi:type="arc"/>
      <path id="path4149" class="cls-3" d="M57.1,80.7c-18.1-4-29.6-22.3-25.7-40.9,3.8-18.6,21.6-30.5,39.7-26.5,18.1,4,29.6,22.3,25.7,40.9-3.8,18.3-21,30.1-38.8,26.7" sodipodi:cx="52.705883" sodipodi:cy="52.021389" sodipodi:end="8.0386371" sodipodi:open="true" sodipodi:rx="34.452763" sodipodi:ry="33.540108" sodipodi:start="1.7808687" sodipodi:type="arc"/>
      <path id="path4184" class="cls-2" d="M59,68.7c-11.9-2.6-19.6-14.6-17-26.8,2.5-12.2,14.3-20,26.2-17.4,11.9,2.6,19.6,14.6,17,26.8-2.5,12-13.9,19.7-25.7,17.5" sodipodi:cx="64.211853" sodipodi:cy="68.789574" sodipodi:end="8.0386371" sodipodi:open="true" sodipodi:rx="34.203297" sodipodi:ry="36.623341" sodipodi:start="1.7808687" sodipodi:type="arc"/>
    </g>
  </g>
</svg>