<?xml version="1.0" encoding="UTF-8"?>
<svg xmlns="http://www.w3.org/2000/svg" version="1.1" viewBox="0 0 230 230">
  <defs>
    <style>
      .cls-1 {
        fill: #565656;
      }
    </style>
  </defs>
  <!-- Generator: Adobe Illustrator 28.7.1, SVG Export Plug-In . SVG Version: 1.2.0 Build 142)  -->
  <g>
    <g id="Layer_1">
      <path class="cls-1" d="M217.5,110c-.26-1.62.17-3.36,0-5-.23-2.18-.62-3.41-1-5.5-.31-1.73.43-3.07-1-4.5.55-2.25-1.21-2.94-1-5v-2h-1v-1c.1-1.39-.55-3.15-1-4.5-.34-1.01-1.12-3.58-2-4.5h-1c-1.55,2.73-4.26,7.58-7,9h-6c-.33-.67-.67-1.33-1-2h-1c-1.57-3.52-3-5.95-3-10h-4c-1.29,1.41-1.16,3.48-2,5-.98,1.77-2.93,3.09-4,5h-1c-.67.67-1.33,1.33-2,2h-8c-1.22-.72-2.37-1.7-3-3h-1c-2.21-3.93-3-5.28-3-10v-3h1v-1c-.04-1.69.93-2.6,1.5-4,.54-1.33.37-2.77,1.5-4h-2c-1.81,3.56-7.48,6.24-11,8h-10c-1.59-.8-3.2-1.29-4-3h-2c-1.65-2.88-4.35-4.91-5-8-.51-2.42,0-5.51,0-8h1c-.57-2.34.99-3.2,2-5v-1h1c1.25-2.27,3.37-3.95,5.5-5.25,1.74-1.06,4.88-1.31,4.5-3.75h-5c-3.32-2.25-5-4.08-5-8h1v-1c.61-1.27,1.78-2.32,3-3h4v-1h8c-.61-1.27-1.78-2.32-3-3h-2c-.87-1.71-2.36-2.18-4-3h-4v-1h-7v-1h-28v1h-7v1h-5c-2.67,1-5.33,2-8,3h-3v1h-3c-2.03,1.77-4.61,2.81-7,4h-2c-2.04,1.78-4.74,3.51-7,5h-2c-1.49,3.21-6.14,3.75-8,7h-1v1h-2c-2.43,4.33-7.58,6.66-10,11h-1c-1.28,2.32-3.23,3.88-4.5,6-1.14,1.9-3.66,3.56-3.5,6h-1c-.33.67-.67,1.33-1,2-1.58,2.77-3.8,4.84-4,8h-1c-.28,1.85-.87,3.36-2,5-1.64,1.77-1.63,4.97-2.5,7-.88,2.05-.82,5.2-2.5,7,.48,1.93-.67,4.44-1,6.5-.11.72-.83,1.92-1,3-.17,1.09,0,2.39,0,3.5h-1v26c-.18,1.16.16,2.16,1,3v1c0,2.96.53,5.52,1,8.5.18,1.1,1.24,3.24,1.5,4.5.24,1.15.5,2.98,1.5,4-.04,1.72,1.04,2.28,1,4v1h1c-.04,1.69.93,2.6,1.5,4,.54,1.33.37,2.77,1.5,4,.97,1.35,1.03,2.65,2,4h1c-.12,2.45,1.84,3.91,3,6,2.08,3.71,4.9,6.24,7,10h1v1h1v2h1c1.07,1.91,2.93,3.09,4,5h1c.67,1,1.33,2,2,3h1c1.22.72,2.37,1.7,3,3h1c1.07,2.15,4.94,4.64,7,6h1v1h2c1.78,1.21,3.23,2.78,5,4h2c2.03,1.77,4.61,2.81,7,4h2c1,.67,2,1.33,3,2h3v1h3c1.33.67,2.67,1.33,4,2h4v1h6v1h12v1h6v-1h11v-1h6v-1h5c1-.67,2-1.33,3-2h4v-1h2l6-3h2c1.87-1.58,4.15-2.4,6-4h2v-1h1c.67-.67,1.33-1.33,2-2h2c1.07-2.15,4.94-4.64,7-6h1c.99-1.96,3.11-2,4-4h1c2-3.51,5.99-5.49,8-9h1c1.13-2.48,2.92-4.98,4.5-7,1.55-1.99,4.74-4.32,4.5-7h1v-2h1c1.66-2.7,2.51-5.19,4-8,.95-2.09,1.44-5.33,3-7-.04-1.72,1.04-2.28,1-4h1v-1c-.52-2.44,1.46-3.56,1-6h1v-4c1.58-1.73.67-3.42,1-5.5.13-.82.84-1.84,1-3,.11-.8,0-1.69,0-2.5,0-4.14,1-6.96,1-11v-2c.44-2-.72-3.23-1-5ZM207.5,90h-1c.67-.67,1.33-1.33,2-2h1c-.67.67-1.33,1.33-2,2ZM186.5,87c.33-.67.67-1.33,1-2h2v2h1v1h1c.33.67.67,1.33,1,2h1c1.97.98,5.85,2.43,3,5h-1v1h-3c-2.78-1.04-7.73-1.38-7-5h-1v-1c-.18-1.16.16-2.16,1-3h1ZM194.5,105.5c.16.99.64,4.96.5,5.5-.23.89-2.82,2.88-4.5,4h-2c-2.21-2.14-5.98-1.62-8-3.5-1.41-1.31-2.58-6.01-1-7.5h1v-1h1c.67-1,1.33-2,2-3h1v-1h1c3.79,1.9,8.28,1.99,9,6.5ZM185.5,121.5c-.37,1.09-4.91,2.09-6,2.5h-1v-1h-1c-.33-.67-.67-1.33-1-2,.97-1.35,1.03-2.65,2-4h2c1.14.96,5.61,2.7,5,4.5ZM187.5,135h-7c0-3.75-.53-5.24,3-7h3c-.57,2.29,1,4.47,1,7ZM173.5,128h1v7c.18,1.16-.16,2.16-1,3h-1v1h-1c-3.8-1.9-7-1.81-7-6.5,0-1.15-.52-4.05,0-5,.8-1.46,3.53-1.95,5-2.5h3c.84.83,1.19,1.84,1,3ZM171.5,148v2h-1c-.67,1-1.33,2-2,3h-1c-.33.67-.67,1.33-1,2h-2c-4.39-2.2-5-4.28-5-9h-1c.84-1.47,2.16-2.53,3-4h4c2.68,1.34,6.74,2.34,6,6ZM196.5,148c-.85-1.48-2.21-2.19-2-4h6c0,1.79.38,3.62-1,5h-2v-1h-1ZM181.5,156h1c.28,1.84,1.82,3.34,0,5-.95.95-.46,2.26-1,3-.66.91-1.78,1.39-3,2h-4c-1.12-2.45-2.79-4.35-3-7v-2h1c.33-.67.67-1.33,1-2h1c.33-.67.67-1.33,1-2h3c1.46.73,3.41,1.05,3,3ZM170.5,171c-2.51,2.16-7.57,2.94-9,6h-7v-1h-7v-3c1.76-1.83,2.06-5.82,3-8,1.43-3.31,4.06-3.57,7-6h4c3.2,1.6,5.78,3.38,6,7h1c-.18,1.16.16,2.16,1,3h1v2ZM159.5,187.5c.56,1.67.66,5.06,2,6.5h-1c-.84,1.47-2.16,2.53-3,4-.85,1.48-2.21,2.19-2,4h-4v-1h-5c-.01-2.95-1.52-6-1-9.5.25-1.67.72-3.09,1-5,.24-1.65,1.4-2.57,1-4.5h8c3.02,1.51,3.05,2.66,4,5.5ZM142.5,182h-1c.44,2.02-.74,3.2-1,5-.21,1.44,0,3.04,0,4.5v10.5h-1v1h-5c-1.88-.75-2.09-2.46-3-4h-1c-.92-1.62-3.4-2.88-4-4.5-.41-1.11,0-3.29,0-4.5,1.07-1.91,2.93-3.09,4-5h1c-.25-1.53,2.1-4.6,3-6h8v3ZM127.5,206c-.33.67-.67,1.33-1,2h-1c.21,1.81-1.15,2.52-2,4h-1c-1.33-.67-2.67-1.33-4-2h-4c-1.95-.98-4.11-1.78-3-4.5.76-1.85,3.26-1.85,5-3.5h2c1.33-1,2.67-2,4-3h1c.84,1.47,2.16,2.53,3,4h1v3ZM98.5,208c-1.04-1.08-1.2-2.55-1-4,1.33-.67,2.67-1.33,4-2h2c.94,1.65,1.67,2.19,2,4,.22,1.22,0,2.74,0,4h-5c-.67-.67-1.33-1.33-2-2ZM93.5,192c-.28-.49-1.27-1.36-1.74-2.01.29-.24.63-2.43.73-2.99h1.02c.97-1.35,1.03-2.65,2-4h5v1h5v1c1.55,1.3.02,3.52-1,5-.95,2.09-1.44,5.33-3,7h-5c-.85-1.91-1.97-3.15-3-5ZM77.5,192v1h-4c-1.48-1-3.31-2.01-3-4-.84-.83-1.19-1.84-1-3h1c.33-.67.67-1.33,1-2h1c1.22.72,2.37,1.7,3,3h2c1.02,1.82,3.14,3.05,1,5h-1ZM82.5,184h-1v-1h-1c-2.08-4.09-7.88-2.7-8-8,.33-.67.67-1.33,1-2h5c1-.67,2-1.33,3-2h3c.67-.67,1.33-1.33,2-2h1c2.33,2.42.72,6.62,3,9,2.32,1.94-1.42,2.65-1,5h-1c-.97,1.35-1.03,2.65-2,4h-2c-.67-1-1.33-2-2-3ZM52.5,173c-.98-1.78-5.26-4.16-3-6v-1h6c.27,1.79,1.32,3.02,1,5h-1c-.67.67-1.33,1.33-2,2h-1ZM48.5,160c.12-2.21-3.18-3.2-1-5v-1h1c.27-1.79,1.32-3.02,1-5h5c.67.67,1.33,1.33,2,2h1v1h1v6c.18,1.16-.16,2.16-1,3h-4v-1h-5ZM47.5,141c-.45-1.87.35-3.15,2-4h2v1h1c1.66,1.39-.33,2.97,0,5h-4v-2h-1ZM38.5,132h-1c-.84-.83-1.19-1.84-1-3h-1v-2c1.97-1.96.34-3.56,2.5-5.25.96-.75,2.45-.68,3.5-1.25,1.04-.57,1.98-1.81,3-2.5h2v2h1v1c.84.83,1.19,1.84,1,3,.42,1.74-.46,4.04-1,5.5-.69,1.88.1.9-1,2.5-.79,1.15-1.27.49-2,2h-1c-.33.67-.67,1.33-1,2h-2c-.97-1.35-1.03-2.65-2-4ZM29.5,108h-1c-.57-2.34.99-3.2,2-5h1v-1h3v1h2c1.94,1.63,4.29,2.13,5,4.5.47,1.56,0,3.85,0,5.5v1h-2c-.67.67-1.33,1.33-2,2h-3c-1.67-2.92-3.44-5.06-5-8ZM35.5,96c-.08-.97,4.25-2.5,5-4h2c1.52,1.31,3.58,1.71,4,3.5.49,2.06-1.08,2.89-2,4.5h-3c-.98-.86-5.92-2.92-6-4ZM45.5,81h1c.33.67.67,1.33,1,2,.67,1,1.33,2,2,3-.33.67-.67,1.33-1,2h-3c-2.45-2.65.64-4.17,0-7ZM41.5,71c1.45-3.17,2.69-3.76,6-5h1c1.04,1.08,1.2,2.55,1,4h-1v2h-1c.04,1.72-1.04,2.28-1,4h-2c-.98-1.75-3.39-2.83-3-5ZM54.5,63v-2h1c-.21-1.81,1.15-2.52,2-4h6c-.21,1.81,1.15,2.52,2,4v1h1c.33.67.67,1.33,1,2h1c0,3.6.32,4.34-3,6h-1c-2.97-1.48-5.89-2.83-9-4h-1c.18-1.16-.16-2.16-1-3h1ZM69.5,51h1c.67-1,1.33-2,2-3h2c1.78.89,3.45,1.73,5,3h2c0,5.37.18,7.41-5,10h-4c-.85-1.48-2.21-2.19-2-4h-1c-1.46-1.46-1.47-4.53,0-6ZM76.5,42.83c-2.88-2.13-.5-2.14,1-4.83h1v-1h6v9h-2c-1.84-1.55-4.21-1.84-6-3.17ZM88.5,31h1c0-2.36,1.15-4.01,1-6h2c.33.67.67,1.33,1,2h1v1h1v1c.9,3.19-2.71,3.86-5,5h-2v-3ZM108.5,38h-5v-1c-.67-1-1.33-2-2-3h-1c1.65-1.81.35-3.91,3-5h3c4.38,2.93,4.51,4.9,2,9ZM113.5,46h1c.98,1.75,3.39,2.83,3,5-.16,1.54-.51,3.03-1,4.5-.32.97-.49,3.16-1,4-1.3,2.11-5.5,3.82-8,5.5h-1v-1h-2c-.33-.67-.67-1.33-1-2h-2c-1.52-.71-1.44-1.46-2-2.5-.07-.13-.98-2.86-1-3-.28-1.8-.3-4.11,1-5.5h1c.67-1,1.33-2,2-3,1.44-2.61,2.4-3.7,5-5h4c.67,1,1.33,2,2,3ZM104.5,70.5c1.18,2.43-1,4.7-2,6.5h-5c-.99-1.77-4.62-3.76-5-5.5-.32-1.48,1.4-4.85,3-5.5h3c1.24,2.51,4.86,2.17,6,4.5ZM111.5,82h2c.33.67.67,1.33,1,2v4h-5c.06-1.17-1-5-2-6v-2h2c.67.67,1.33,1.33,2,2ZM147.5,90h-1c0,2.37.32,5.45-1.5,7-1.74,1.49-5.32,1.91-7.5,3h-1v-1h-1c-1.07-1.91-2.93-3.09-4-5h1c0-1.85-.09-4.71,1-6,1-1.19,4.23-2.12,6-3h3c1.15,2.04,3.07,3.71,5,5ZM157.5,91v1h2c1.07,2.1,3.28,1.69,4.5,3.25.84,1.07.5,3.19.5,4.75h-2c-1.33,1-2.67,2-4,3h-2c-.67-1-1.33-2-2-3h-2c-2.56-2.81,0-6.82,0-10h4v1h1ZM179.5,91v5h-1c-.67,1-1.33,2-2,3h-1v1h-4c-2.95-3.07.53-5.42,2-8h5v-1h1ZM173.5,109c.79,1.9,1.73,4.11,0,6h-1c-.33.67-.67,1.33-1,2-1.43,2.59-3.4,3.03-6,4h-4v-1h-1c-1.02-1.79-2-2.36-2-4.5,0-.33.89-1.82,1-2.5.1-.64-.15-1.37,0-2,.88-3.62,5.1-4.61,8-7h1c2.54,2.21,3.79,2.1,5,5ZM137.5,123h1c-.32,2.57-1.8,4.41-2,7h-5c-.33-.67-.67-1.33-1-2h-1c0-2.49-.68-3.95-1-6-.35-2.21.66-4.19-1-6h1c.33-.67.67-1.33,1-2h2c-.38,2.37,2.9,4.02,4,6v1h1c.33.67.67,1.33,1,2ZM140.5,141h1v1h1c.04,1.72-1.04,2.28-1,4h-1c-.29,1.88-.9,4.14-3,5h-8v-2h-1c.84-.83,1.19-1.84,1-3h1c-.1-1.87,1.44-4.24,2-6,.91-2.85,1.14-3.57,4-5h1c.87,1.44,3.28,4.35,3,6ZM154.5,155h-2c-.67.67-1.33,1.33-2,2h-2v-1h-1c-.98-1.75-3.39-2.83-3-5h1c.28-1.85.87-3.36,2-5h5c2,2.08,2,6.16,2,9ZM143.5,166c-.64,2.25-.23,5.1-2,7h-7c-1.18-2.58-2.73-4.46-4-7h-1c.04-1.72-1.04-2.28-1-4v-1h1c-.2-1.45-.04-2.92,1-4h5v-1h5v1c.33.67.67,1.33,1,2h1c1.94,3.53,2.03,3.38,1,7ZM110.5,166h-1c.79,3.74-3.45,8.74-5,12h-7c-1.85-3.25-3-5.12-3-9h1c.67-.67,1.33-1.33,2-2h1c.67-.67,1.33-1.33,2-2h1c1.33-1,2.67-2,4-3h1c.99,1.96,3.11,2,4,4ZM73.5,167c.04-1.72-1.04-2.28-1-4-.33-.67-.67-1.33-1-2h1c.84-.83,1.19-1.84,1-3h1v-1h7c-.07,2.86,2.62,4.94,2,8h-2c-1,.67-2,1.33-3,2h-5ZM66.5,152h2c2.19,2.07-.22,2.79,0,5h-1v1h-3c0-2.35-.67-4.96,2-6ZM73.5,149v-1h-1c1.01-1,.47-2.09,1-3,.71-1.22,1.69-2.13,3-3h5v1h1c.74,1.66,2.86,3.46,1,5-.84.83-1.19,1.84-1,3h-8c-.33-.67-.67-1.33-1-2ZM71.5,136c-.33-.67-.67-1.33-1-2h-1c-.35-1.84.63-2.55,1-4,.53-2.05-.32-2.83,2-4h5v-1h1c.86,1.5,1.88,2.58,2.5,4l1.5,1.5c-.33.33-.67.67-1,1-.05.47.14,1.05,0,1.5-.84,2.33-1.82,2.91-4,4h-5v-1h-1ZM58.5,124h5v1h1v1h1c-1.45,1.51-.34,2.93-1,4.5-.74,1.74-3.47,2.73-5,3.5h-4c-2.76-5-2.8-7.82,3-10ZM52.5,118v-2h1c.33-.67.67-1.33,1-2h4c5.15,2.42-.5,4.75-3,6h-2c-.33-.67-.67-1.33-1-2ZM49.5,103h1v1h2c1.79,1.78,1.4,5.06-1,6h-1v1h-1c-.33.67-.67,1.33-1,2h-1c0-4.5-2.68-6.87,2-10ZM68.5,100h1v-1h1c-.21-1.81,1.15-2.52,2-4h4c.97,1.35,1.03,2.65,2,4,2.19,2.07-.22,2.79,0,5h-1v2h-5c-.67-.67-1.33-1.33-2-2h-1v-2h-1v-2ZM72.5,86h1c.67-1,1.33-2,2-3h1v-1h2v3h1c-.28,1.85-.87,3.36-2,5h-1c-1.7-.85-4.52-1.58-4-4ZM54.5,83c-.33-.67-.67-1.33-1-2-1.02-1.82-3.14-3.05-1-5,.85-1.48,2.21-2.19,2-4h1c1,.67,2,1.33,3,2h2c1.66,1.73,1.61,6.24,0,8h-3v1h-3ZM73.5,70c1.37-4.16,5.94-3.09,9-6h1v1h1v1h2c4.7,5.08-5.07,7.52-7,11h-1c-.67-1-1.33-2-2-3-.33-.67-.67-1.33-1-2h-1c-.33-.67-.67-1.33-1-2ZM87.5,61c-1.98-2.17-1-7.18-1-10h1c2.54,1.27,5.09,1.92,6,4.5.59,1.67.15,5.26-1,6.5h-3v-1h-2ZM91.5,46h-2c-.1-1.34.53-3.22,1-4.5.86-2.35.26-2.13,3-3.5h3c.98,1.75,3.39,2.83,3,5h-1c-1.01,1.8-1.86,3.34-3,5h-2c-.67-.67-1.33-1.33-2-2ZM69.5,82h-2c0-2.49-.79-6.05,1-8h1c.84.83,1.19,1.84,1,3h1c.57,2.34-.99,3.2-2,5ZM95.5,85h1c.84-.83,1.19-1.84,1-3h3c1.14,2.06,3.18,3.56,3,6,1.04,1.08,1.2,2.55,1,4h-8c-.33-.67-.67-1.33-1-2-2.19-2.07.22-2.79,0-5ZM118.5,99c-.61,1.27-1.78,2.32-3,3h-4c-1.48-1-3.31-2.01-3-4v-1c-.18-1.16.16-2.16,1-3h6c.85,1.91,1.97,3.15,3,5ZM129.5,100c.67,1,1.33,2,2,3h1c-1.47,1.61-.46,3.46-2,5h-2c-.33-.67-.67-1.33-1-2v-1h-1v-1h-1c-.33-.67-.67-1.33-1-2h-1c-.18-1.16.16-2.16,1-3h4v1h1ZM148.5,103v1h1c1.1,2.18,3.31,2.19,4,4.5.36,1.2.29,4.29,0,5.5-.96,3.95-6.31,4.62-10,6h-1c-1.25-2.07-2.78-3.8-4-6h-1v-2h-1c-1.45-1.28-.21-2.39,0-4,1.17-1.96,1.1-2.11,3-3.17,1.46-.81,3.43-1.25,5-1.83h4ZM120.5,117.83c2.25,1.38,1.1.42,2,2.67.88,2.2,2.45,6.15-1,7.5h-3c-1.78-3.52-7.73-1.7-7-6v-1h-1c.67-1,1.33-2,2-3h1v-1h1v-1h2c1.26.63,2.83,1.11,4,1.83ZM114.5,132h1c2.08,1.82-1.85,5.56-2,8h-2c-1.61-1.09-3.03-2.3-4-4,.87-1.44,3.28-4.35,3-6h1c1,.67,2,1.33,3,2ZM108.5,145h3v1c-1.22.72-2.37,1.7-3,3h-3v-1h-1c-1.27-2.3-4-2.75-5-5,.67-.67,1.33-1.33,2-2h2c1.78,1.21,3.23,2.78,5,4ZM124.5,156v1h-1c.33,2.47-2.16,3.08-4,4h-6c-1-1.81-4.54-3.78-4-6,.4-1.63,4.01-2.03,5-4h9c.74,1.66,2.87,3.46,1,5ZM95.5,161v1h-2c-.67,1-1.33,2-2,3h-1c-.94-1.64-1.56-2.27-2-4-.43-1.7.31-2.57-1-4-.97-2.16-.21-2.81,0-5h1v-1c.67-1,1.33-2,2-3h6v1h1c.33.67.67,1.33,1,2h2c1.35,2.45,5.11,3.09,3.5,5.75-1.28,2.11-5.2,1.61-6.5,4.25h-2ZM96.5,133h-1c-1.51-2.64-4.9-4.83-2-8,.97-1.35,1.03-2.65,2-4h3v1h7c-.52,2.44,2.22,4,0,6h-1v2h-1c.06,1.17-1,5-2,6h-4c.18-1.16-.16-2.16-1-3ZM84.5,124c-.84-.83-1.19-1.84-1-3-.18-1.16.16-2.16,1-3h5v3h-1c.04,1.72-1.04,2.28-1,4h-2v-1h-1ZM108.5,114c-.33.67-.67,1.33-1,2h-1v1h-1v-1h-11v-4h1c-.69-3.13,1.2-2.59,3.5-3.38,2.29-.79,4.64-2.06,6.5-3.62h1v1h2c2.67,1.04,2,3.66,2,6h-1v2h-1ZM83.5,111v-1h-1c-.2-1.45-.04-2.92,1-4h1v-2h4v1c.33.5.67,1,1,1.5,1.33.67,1.33,1.33,0,2-.11,1.51.13,2.29-1,3.5h-5v-1ZM61.5,110c-3.72-2.46-3.83-4.09,0-6h2c.33.67.67,1.33,1,2,1.78,1.57-.13,2.48-1,4h-2ZM94.5,99c.33-.67.67-1.33,1-2h2v1h5c.45,1.87-.35,3.15-2,4h-2c-1,.67-2,1.33-3,2h-1c-1.33-1.46-1.45-3.55,0-5ZM119.5,112c-2.46-1.23-5.25-4.34-1-6h2c.33.67.67,1.33,1,2,.84,1.47,2.16,2.53,3,4h-5ZM89.5,92c.33.67.67,1.33,1,2-.84.83-1.19,1.84-1,3h-1v2h-4c.04-1.72-1.04-2.28-1-4h-1c-.55-2.25,1.21-2.94,1-5h4c.67.67,1.33,1.33,2,2ZM66.5,120c-1.12-.9,0-4.1,0-6h1v-1h1c.33-.67.67-1.33,1-2h7v1h1c-.21,1.81,1.15,2.52,2,4h-1v2c-.94,1.99-3.09,2.28-5,3h-5v-1h-2ZM85.5,137h1c-.04-1.72,1.04-2.28,1-4h1c.84.83,1.19,1.84,1,3h1c.84,1.47,2.16,2.53,3,4h1v1c-1.33.67-2.67,1.33-4,2h-1v-1h-1c-.85-1.48-2.21-2.19-2-4h-1v-1ZM128.5,135c-1.38,1.52-1.21,3.87-2,5.5-.93,1.9-1.91,3.53-3,5.5h-2v-1h-5c.85-1.48,2.21-2.19,2-4h1v-1h1c-.58-3.11,1.52-6.3,4-8h2c.67,1,1.33,2,2,3ZM126.5,85c1.99,2.06.75,7.18-1,9h-3c-.33-.67-.67-1.33-1-2h-1c-1.04-1.08-1.2-2.55-1-4h1c-.2-1.45-.04-2.92,1-4h4v1h1ZM92.5,80h-1v2h-1c.18,1.16-.16,2.16-1,3h-4c-.84-.83-1.19-1.84-1-3h-1c1.15-2.04,3.07-3.71,5-5h2c.33.67.67,1.33,1,2h1v1ZM54.5,90c1-.67,2-1.33,3-2h4c.67-.67,1.33-1.33,2-2h1c1.48,1,3.31,2.01,3,4,.57,2.34-.99,3.2-2,5-.84,1.47-2.16,2.53-3,4h-5v1h-2c-2.5-1.7-5.64-5.11-3-8h1v-2h1ZM58.5,143c-.9-3.19,2.71-3.86,5-5h2c.84,1.47,2.16,2.53,3,4,.09,3.68-2.87,4.83-6,6h-1c-.98-1.75-3.39-2.83-3-5ZM63.5,163c2.63,1.32,2.55,1.77,4,4,.33.67.67,1.33,1,2v2h-3c-2.23-1.12-4.21-2.21-4-5-.18-1.16.16-2.16,1-3h1ZM107.5,197h1c-.69-2.8,1.8-4.41,2-7h7c8.31,4.15-4.15,6.24-7,9h-2c-.33-.67-.67-1.33-1-2ZM128.5,179h-1c-1.19,2.17-2.71,4-4,6h-6v-1h-6v-1h-1c-.97-2.16-.21-2.81,0-5h1c.33-2.67,2.01-4.62,3-7,1.36-3.27,1.29-3.61,5-5h4c1.18,2.58,2.73,4.46,4,7h1c-.18,1.16.16,2.16,1,3v1h-1v2ZM151.5,141c-3.71-1.39-5.07-2.61-7-6-.67-1-1.33-2-2-3h-1c.33-.67.67-1.33,1-2-.27-5.26,4.71-5.39,9-7h5v1h1v1h1c2.16,2.34,0,4.37,0,7,0,.92,1.02,3.3,1,3.5-.15,1.54-1.24,2.14-2,3.5h-1c-.33.67-.67,1.33-1,2h-4ZM162.5,87h1c.61,1.27,1.78,2.32,3,3h-1c-1.92-1.29-3.86-2.95-5-5h-1v-1h1c.67,1,1.33,2,2,3ZM154.5,84h-2v1h-2v-1h-1c-.33-.67-.67-1.33-1-2h-2c-.33-.5-.67-1-1-1.5-1.33-.67-1.33-1.33,0-2-.08-1.15,0-2.35,0-3.5h8v-1h5c-1.73,3.07-4.61,6.22-4,10ZM137.5,74h2v1c0,5.27-2.54,3.98-6,7h-2c-.33-.67-.67-1.33-1-2h-1v-1h-1c-.65-3.8,1.83-6.41,5-8h2c.67,1,1.33,2,2,3ZM123.5,71c0,1.26.23,2.77,0,4-.34,1.84-1.07,2.37-2,4h-4c-.33-.67-.67-1.33-1-2h-2c-2.24-1.95-5.12-2.33-4-6,.84-2.73,3.65-2.95,6-5h1v1h2c.67,1,1.33,2,2,3h1v1h1ZM128.5,59c.32,2.22,4,6.26,2,8h-3v-1h-1v-1h-2c-1.57-2.85-3.46-3.42-3-7,.33-2.56,1.8-4.41,2-7h5c0,2.57-.37,5.46,0,8ZM133.5,36h-1c.19,2.61-2.58,6.68-4,9h-5v1h-2c-.67-1-1.33-2-2-3h-1c-.98-1.75-3.39-2.83-3-5,0-2.03-.02-3.41,1-5,1.04-1.61,3.16-2.1,4-4h2v-1h3c5.21,1.95,5.23,3.98,8,8ZM132.5,23h-1v1h-3c-1.7-.85-4.52-1.58-4-4h8c1.06.94,1.2,2.04,0,3ZM119.5,20v4h-2c-.61,1.27-1.78,2.32-3,3h-1c-.67-.67-1.33-1.33-2-2h-1c-1.77-.83-2.37-2.13-2-4v-1h11ZM103.5,21c.22,2.05-1.43,2.92-3,4h-1c-.85-1.48-2.21-2.19-2-4h6ZM84.5,25c.1,1.95-1,3.67-1,6h-5v-1c-2.82-2.26,3.35-4.18,5-5h1ZM71.5,30h1v1c.84.83,1.19,1.84,1,3h-1c-.84.83-1.19,1.84-1,3h-2c-4.75-3.22-1.78-4.4,2-7ZM61.5,38c1.46.98,4.36,2.5,5.5,3.75,2.01,2.21.98,1.6-.5,4.25-.33.67-.67,1.33-1,2h-1c-.84.83-1.19,1.84-1,3h-7c-.33-.67-.67-1.33-1-2-1.31-2.37-3.99-3.2-2.5-6,1.18-2.22,4.17-2.63,5.5-5h3ZM41,55c1.68-2.15,4.14-3.58,5.5-6h2c.33.67.67,1.33,1,2,1.17,2.12,3.38,3.62,1,6-.97,1.35-1.03,2.65-2,4h-7c-1.48-2.45-2.26-3.75-.5-6ZM34.5,63h2c.84.83,1.19,1.84,1,3-.77,1.73-2.2,3.03-2,5h-5c1.53-2.49,3.82-5.13,4-8ZM37.5,76c-.13,2.33,2.41,2.69,2,5,0,2.54.9,5.87-2,7h-2c-.67.67-1.33,1.33-2,2h-2c-2.24-3.92-3.42-3.74-2-8,.22-.65.55-4.05,1-4.5.76-.75,2.98-1.12,4-1.5h3ZM20.5,96.5c.34-2.11,1.82-4.19,2-6.5h1c.33.67.67,1.33,1,2h1c.71,1.54,3.72,2.07,4,3.5.3,1.54-2.23,3.16-3,4.5h-1c-.33.67-.67,1.33-1,2h-1v1h-4c1.75-1.89.64-4.22,1-6.5ZM18.5,118.5c0-1.79-.22-3.73,0-5.5.23-1.87,1.18-3.25,1-5h3c.85,1.39,1.23,2.74,2,4,.87,1.42,2.16,2.15,2,4h1c.33.67.67,1.33,1,2h1c.34.59,1.91,2.08,2,2.5.25,1.22-.81,1.11-1,2-.33,1.59-1.04,2.93-1,4.5h-5c-1.33.67-2.67,1.33-4,2h-1c0-3.9-1-6.55-1-10.5ZM22.5,145c-.58-1.3-.55-3.16-1-4.5-.4-1.19-1.32-3.81-1-5,.45-1.64,2.26-1.85,4-2.5h5v-1h2c-.21,1.81,1.15,2.52,2,4h1v1c1.45,1.28.21,2.39,0,4h-1c.19,2.61-2.58,6.68-4,9h-3c-1.06-1.89-3.18-3.16-4-5ZM36.5,150c-.19-2.61,2.58-6.68,4-9h1c.33.67.67,1.33,1,2,.77,1.73,2.2,3.03,2,5h-1v1c-1.47,1.61-.46,3.46-2,5h-4c-.87-1.52-2.78-2.43-1-4ZM28.5,155h3c-.12,2.21,3.18,3.2,1,5-.67,1-1.33,2-2,3h-1c.07-2.91-3.67-5.09-1-8ZM37.5,163c.84-.83,1.19-1.84,1-3h4v1h1v2h1c.18,1.16-.16,2.16-1,3v1h-4c-.85-1.48-2.21-2.19-2-4ZM41.5,173h3c.33.67.67,1.33,1,2h1c1.64,1.1,3.53,2.27,3,4.5-.41,1.72-2.47,2.25-4,3.5h-2c-1.56-3.52-5.69-6.3-2-10ZM56.5,183c-3.74-3.89,1.72-5.27,3-8h2c1.16.44,5.46,1.39,6,2.5,1.11,2.28-2.26,3.19-2,5.5h-7v1h-1v-1h-1ZM50.5,186h1c1.42.66,2.21,1.45,2,3v2h-2c-1.15-2.05-4.51-3.58-1-5ZM59.5,191v-2h5c-.04,1.72,1.04,2.28,1,4v1h-3c-1.22-.72-2.37-1.7-3-3ZM69,200.25c-1.38-1.55-1.35.07-.5-1.75.25-.53.71-.99,1-1.5h1c3.52,1.76,5,1.97,5,6h-3c-.84-1.78-2.39-1.51-3.5-2.75ZM82.5,203c-1.51-1.5-1-4.04-1-6h1c-.18-1.16.16-2.16,1-3h1v-1h1v-1h1c1.01,1.8,1.86,3.34,3,5h1v2h1c.84.83,1.19,1.84,1,3h-1c-1.33.67-2.67,1.33-4,2h-4v-1h-1ZM91.5,208h1v2h1v2h-3c-4.25-2.12-2.74-2.6,1-4ZM109.5,215v-1h2v1h-2ZM129.5,214c.33-.67.67-1.33,1-2h1c-.21-1.81,1.15-2.52,2-4h2c1.42.66,2.21,1.45,2,3-.94,1.99-3.09,2.28-5,3h-3ZM152.5,207c-2.09,2.02-5.42,2.71-8,4h-1c-.84-.83-1.19-1.84-1-3,.33-.67.67-1.33,1-2h4v1h5ZM161.5,204h-1v-1h1v-1h1c.97-1.35,1.03-2.65,2-4h4c.52,2.48-5.2,4.51-7,6ZM171.5,194c-3.05-1.53-4.69-2.14-6-5-.89-1.94-1-4.7-1-7,1.22-.72,2.37-1.7,3-3h2v-1h3c1.48,2.69,3.66,4.32,5,7h1c-.13,1.84,1.48,2.58,1,4.5-.34,1.37-3.2,3.1-4,4.5h-4ZM191.5,176.5c.83,3.49-3.44,5.75-5,8.5h-2c-1.2-2.64-2.57-4.42-4-7h-1v-1h-1c.41-2.56-4.49-4.25,0-6h6c1.45,2.86,6.34,2.71,7,5.5ZM190.5,169c-1.22-.72-2.37-1.7-3-3-.57-2.34.99-3.2,2-5h5c1.07,1.87,2.13,2.05,1.5,4-.62,1.93-2.7,1.69-2.5,4h-3ZM203.5,161h-2c-.95-1.69-4.16-3.21-2-5v-2h5c2.38,2.23-.81,4.54-1,7ZM194.5,154h-1c-.33.67-.67,1.33-1,2h-4c-.84-.83-1.19-1.84-1-3,.61-1.27,1.78-2.32,3-3h1c.84,1.47,2.16,2.53,3,4ZM208.5,149h-2v-5h2v-1h1c.52,2.44-1.46,3.56-1,6ZM189.5,143v1h-1c-.99,1.96-3.11,2-4,4h-6c-1.06-1.75-2.99-4.21-1-6h1v-1h11v2ZM208.5,120.5c1.18,1.24,1.76,4.37,2,6,.38,2.57-.33,4.56-1.5,6.5-1.06,1.76-1.26,5.13-3.5,6h-5v-1h-6c-.84-.83-1.19-1.84-1-3,0-2.58-1.53-4.63-1-7-.84-.83-1.19-1.84-1-3h-1v-1c1.31-1.36.86-2.8,2-4,1.31-1.38,3.07-1.01,4-3h5c1.94,1.87,5.25,1.66,7,3.5ZM209.5,115c-3.59-1.79-7.59-2.65-9-6-.71-1.7-2.3-8.93-1-10h1c.67-1,1.33-2,2-3h1v-1h7c1.96,1.98,1.73,7.41,2,10,.23,2.18,1,3.37,1,5.5s-1,2.7-2,4.5h-2Z"/>
    </g>
  </g>
</svg>